<?xml version="1.0" standalone="no"?>
<!DOCTYPE svg PUBLIC "-//W3C//DTD SVG 20010904//EN"
 "http://www.w3.org/TR/2001/REC-SVG-20010904/DTD/svg10.dtd">
<svg version="1.0" xmlns="http://www.w3.org/2000/svg"
 width="256.000000pt" height="256.000000pt" viewBox="0 0 256.000000 256.000000"
 preserveAspectRatio="xMidYMid meet">

<g transform="translate(0.000000,256.000000) scale(0.100000,-0.100000)"
fill="#C5C5C5" stroke="none">
<path d="M1038 2451 c-121 -26 -179 -47 -283 -99 -132 -65 -224 -132 -324 -231 -318 -319 -430 -774 -295 -1203 75 -237 257 -481 459 -618 109 -74 264 -146 380 -177 93 -25 114 -27 305 -27 191 0 212 2 305 27 56 15 149 51 211 82 362 178 604 508 670 913 19 116 14 349 -10 455 -96 420 -425 750 -863 864 -84 21 -125 26 -283 29 -155 3 -199 1 -272 -15z m346 -403 c14 -19 16 -64 16 -290 l0 -268 153 0 c162 0 197 -9 197 -50 0 -10 -66 -151 -146 -312 -81 -161 -178 -358 -216 -438 -38 -79 -76 -152 -85 -162 -20 -23 -61 -23 -85 -1 -16 15 -18 36 -18 260 l0 243 -153 0 c-122 0 -157 3 -175 16 -47 33 -37 63 188 541 116 247 220 456 231 466 30 24 74 22 93 -5z"/>
</g>
</svg>